<?xml version="1.0" standalone="no"?>
<!DOCTYPE svg PUBLIC "-//W3C//DTD SVG 20010904//EN"
 "http://www.w3.org/TR/2001/REC-SVG-20010904/DTD/svg10.dtd">
<svg version="1.0" xmlns="http://www.w3.org/2000/svg"
 width="900.000000pt" height="900.000000pt" viewBox="0 0 900.000000 900.000000"
 preserveAspectRatio="xMidYMid meet">
<metadata>
Created by potrace 1.10, written by Peter Selinger 2001-2011
</metadata>
<g transform="translate(0.000000,900.000000) scale(0.100000,-0.100000)"
fill="#f7f3f3" stroke="none">
<path d="M4315 7005 c-11 -2 -121 -9 -245 -15 -216 -11 -341 -24 -535 -55 -49
-7 -135 -21 -190 -30 -101 -16 -206 -38 -280 -57 -22 -6 -58 -14 -80 -18 -44
-8 -216 -55 -350 -96 -27 -8 -63 -19 -80 -24 -16 -4 -55 -18 -85 -30 -30 -12
-68 -26 -85 -31 -16 -5 -39 -13 -50 -18 -11 -5 -38 -15 -60 -24 -161 -61 -396
-170 -520 -241 -33 -19 -81 -46 -108 -60 -64 -35 -243 -156 -342 -230 -125
-93 -191 -151 -316 -276 -137 -137 -206 -220 -320 -391 -36 -53 -129 -230
-155 -294 -6 -16 -19 -47 -28 -68 -9 -21 -16 -44 -16 -52 0 -8 -6 -29 -14 -47
-18 -43 -42 -151 -57 -263 -21 -157 -12 -361 23 -505 6 -25 14 -63 18 -85 7
-38 12 -54 47 -150 40 -108 120 -270 181 -362 23 -36 42 -69 42 -74 0 -5 4 -9
8 -9 4 0 16 -14 26 -30 9 -17 27 -41 39 -54 12 -13 47 -54 77 -91 166 -203
495 -473 765 -628 28 -16 75 -44 105 -61 67 -39 321 -164 410 -202 206 -86
514 -193 690 -239 36 -9 88 -22 115 -29 50 -13 136 -32 275 -60 41 -9 107 -22
145 -31 39 -8 83 -15 99 -15 16 0 70 -6 120 -14 234 -37 646 -66 926 -66 237
0 641 28 880 62 41 6 102 14 135 18 33 4 80 12 105 18 25 6 83 18 130 27 47 9
108 23 136 31 28 8 59 14 69 14 10 0 41 6 69 14 28 8 80 22 116 31 36 10 76
21 89 27 14 5 43 13 65 18 23 5 86 25 141 45 55 20 114 40 130 45 43 12 183
67 270 106 17 7 57 25 90 39 73 33 261 127 307 155 18 11 40 23 48 27 30 13
256 156 291 184 20 16 40 29 43 29 3 0 14 7 23 14 10 8 45 36 78 63 60 48 180
152 240 208 82 78 305 340 305 359 0 3 20 34 45 70 25 37 45 68 45 71 0 2 13
26 28 52 24 40 48 95 111 248 24 57 69 236 76 305 4 30 10 91 15 134 5 44 7
83 4 88 -8 12 -4801 10 -4809 -2 -3 -5 -6 -177 -5 -382 0 -282 3 -374 13 -380
6 -4 566 -8 1244 -8 677 0 1234 -3 1237 -8 6 -10 -55 -83 -155 -182 -235 -234
-550 -413 -904 -515 -305 -87 -663 -122 -940 -91 -203 22 -444 67 -520 96 -11
5 -49 17 -85 28 -71 22 -114 39 -225 87 -44 19 -118 55 -135 65 -8 5 -53 32
-100 60 -292 177 -516 415 -648 690 -106 222 -147 443 -123 668 6 64 19 140
27 167 8 28 22 75 31 105 27 90 111 259 176 354 71 103 261 302 357 373 230
171 459 284 735 364 149 43 172 49 194 49 12 0 50 6 84 14 113 26 398 50 519
43 131 -7 271 -23 379 -43 42 -8 87 -14 101 -14 24 0 95 -18 163 -41 17 -6 44
-14 60 -19 46 -13 97 -31 127 -46 14 -8 31 -14 37 -14 11 0 193 -82 221 -100
8 -5 38 -21 65 -36 131 -70 280 -182 405 -306 102 -100 148 -158 236 -293 18
-27 38 -56 44 -62 14 -16 2055 -19 2065 -3 3 5 1 17 -4 27 -5 10 -26 52 -46
93 -49 101 -82 160 -100 180 -8 9 -15 20 -15 24 0 19 -186 252 -270 336 -84
86 -130 127 -301 273 -177 152 -665 430 -944 540 -52 20 -201 76 -245 92 -19
7 -53 19 -75 28 -22 8 -67 22 -100 32 -33 9 -78 23 -100 30 -96 30 -211 61
-302 81 -35 8 -93 21 -130 30 -223 51 -613 102 -948 124 -175 11 -538 21 -570
15z"/>
</g>
</svg>
