<?xml version="1.0" standalone="no"?>
<!DOCTYPE svg PUBLIC "-//W3C//DTD SVG 20010904//EN"
 "http://www.w3.org/TR/2001/REC-SVG-20010904/DTD/svg10.dtd">
<svg version="1.0" xmlns="http://www.w3.org/2000/svg"
 width="512.000000pt" height="512.000000pt" viewBox="0 0 512.000000 512.000000"
 preserveAspectRatio="xMidYMid meet">
<metadata>
Created by potrace 1.16, written by Peter Selinger 2001-2019
</metadata>
<g transform="translate(0.000000,512.000000) scale(0.100000,-0.100000)"
fill="#000000" stroke="none">
<path d="M2330 4213 c-664 -35 -1338 -269 -1760 -610 -111 -90 -287 -277 -352
-373 -100 -151 -165 -302 -200 -465 -16 -78 -16 -333 0 -410 78 -363 319 -687
704 -948 314 -213 745 -376 1193 -452 231 -39 362 -49 650 -49 357 0 598 28
905 104 730 183 1290 566 1524 1042 193 393 162 795 -92 1178 -79 120 -305
344 -450 446 -544 384 -1318 580 -2122 537z m471 -233 c303 -24 548 -66 783
-136 570 -170 1017 -489 1205 -861 17 -34 31 -67 31 -73 0 -7 -191 -10 -585
-10 l-584 0 -35 55 c-46 71 -164 195 -244 256 -132 100 -348 191 -536 227
-139 26 -437 23 -573 -6 -377 -81 -675 -291 -803 -565 -85 -180 -92 -380 -20
-570 33 -87 129 -224 215 -305 170 -163 391 -266 666 -313 103 -17 151 -20
284 -16 177 5 268 21 424 73 201 67 354 163 490 310 l65 69 -712 3 -712 2 0
220 0 220 1365 0 1365 0 0 -59 c0 -147 -91 -379 -214 -541 -201 -268 -565
-507 -980 -645 -604 -201 -1271 -236 -1913 -99 -657 140 -1181 458 -1415 859
-148 254 -179 528 -89 787 93 269 330 529 663 729 482 289 1201 439 1859 389z"/>
</g>
</svg>
